# xmcd
#
# Track frame offsets:
#	183
#	14150
#	28410
#	45460
#	60573
#	79075
#	99973
#	116075
#	130770
#	146008
#
# Disc length: 2197 seconds
#
# Revision: 3
# Processed by: cddbd v1.5.1PL0 Copyright (c) Steve Scherf et al.
# Submitted via: dBpowerAMP V4.0
#
DISCID=8708930a
DTITLE=The Forester Sisters - Come Hold Me
DYEAR=1990
DGENRE=Country
TTITLE0=Nothing's Gonna Bother Me Tonight
TTITLE1=I Struck Gold
TTITLE2=Old Enough To Know
TTITLE3=Between My Heart And Me 
TTITLE4=Drive South (Duet With The Bellamy Brothers)
TTITLE5=Come Hold Me
TTITLE6=You'll Be Mine
TTITLE7=Born To Give My Love To You
TTITLE8=You Can't Have A Good Time Without Me
TTITLE9=Better Be Some Tears
EXTD=
EXTT0=
EXTT1=
EXTT2=
EXTT3=
EXTT4=
EXTT5=
EXTT6=
EXTT7=
EXTT8=
EXTT9=
PLAYORDER=
